<svg xmlns="http://www.w3.org/2000/svg" viewBox="0 0 168.52 168.35"><defs><style>.cls-1{font-size:31.51px;fill:#ef3b39;font-family:Montserrat-SemiBold, Montserrat;font-weight:600;}</style></defs><title>booknow</title><g id="Layer_2" data-name="Layer 2"><g id="Layer_1-2" data-name="Layer 1"><text class="cls-1" transform="matrix(0.97, 0.24, -0.24, 0.97, 87.46, 25.67)">b</text><text class="cls-1" transform="translate(109.6 31.48) rotate(35.8)">o</text><text class="cls-1" transform="matrix(0.54, 0.84, -0.84, 0.54, 127.03, 44.37)">o</text><text class="cls-1" transform="translate(138.57 62.71) rotate(78.46)">k</text><text class="cls-1" transform="matrix(-0.08, 1, -1, -0.08, 141.9, 84.13)"> </text><text class="cls-1" transform="translate(141.8 94.65) rotate(111.04)">n</text><text class="cls-1" transform="translate(133.17 115.97) rotate(133.12)">o</text><text class="cls-1" transform="translate(119.2 132) rotate(158)">w</text><text class="cls-1" transform="translate(90.56 141.41) rotate(178.07)"> </text><text class="cls-1" transform="translate(80.09 142.46) rotate(-165.33)">b</text><text class="cls-1" transform="translate(58.05 136.29) rotate(-143.29)">o</text><text class="cls-1" transform="matrix(-0.53, -0.85, 0.85, -0.53, 40.81, 123.12)">o</text><text class="cls-1" transform="matrix(-0.18, -0.98, 0.98, -0.18, 29.57, 104.6)">k</text><text class="cls-1" transform="translate(26.58 83.13) rotate(-84.79)"> </text><text class="cls-1" transform="translate(26.85 72.61) rotate(-68.04)">n</text><text class="cls-1" transform="translate(35.84 51.43) rotate(-45.96)">o</text><text class="cls-1" transform="translate(50.05 35.63) rotate(-21.08)">w</text></g></g></svg>