<?xml version="1.0" encoding="utf-8"?>
<!-- Generator: Adobe Illustrator 23.0.4, SVG Export Plug-In . SVG Version: 6.00 Build 0)  -->
<svg version="1.1" id="Layer_1" xmlns="http://www.w3.org/2000/svg" xmlns:xlink="http://www.w3.org/1999/xlink" x="0px" y="0px"
	 viewBox="0 0 168.5 168.4" style="enable-background:new 0 0 168.5 168.4;" xml:space="preserve">
<style type="text/css">
	.st0{fill:#EF3B39;}
	.st1{font-family:'Montserrat-SemiBold';}
	.st2{font-size:31.4864px;}
	.st3{font-size:31.51px;}
	.st4{font-size:31.4659px;}
	.st5{font-size:31.5635px;}
	.st6{font-size:31.3964px;}
</style>
<title>booknow</title>
<g>
	<g id="Layer_1-2">
		<text transform="matrix(0.9707 0.2402 -0.2402 0.9707 87.4605 25.6701)" class="st0 st1 st2">b</text>
		<text transform="matrix(0.8111 0.585 -0.585 0.8111 109.5999 31.4799)" class="st0 st1 st3">o</text>
		<text transform="matrix(0.5408 0.8412 -0.8412 0.5408 127.0296 44.3703)" class="st0 st1 st4">o</text>
		<text transform="matrix(0.2001 0.9798 -0.9798 0.2001 138.5696 62.71)" class="st0 st1 st3">k</text>
		<text transform="matrix(-0.359 0.9333 -0.9333 -0.359 141.8009 94.6501)" class="st0 st1 st3">n</text>
		<text transform="matrix(-0.6835 0.7299 -0.7299 -0.6835 133.1707 115.9696)" class="st0 st1 st3">o</text>
		<text transform="matrix(-0.9272 0.3746 -0.3746 -0.9272 119.2 132.0003)" class="st0 st1 st3">w</text>
		<text transform="matrix(-0.9674 -0.2533 0.2533 -0.9674 80.0897 142.4592)" class="st0 st1 st3">b</text>
		<text transform="matrix(-0.8017 -0.5978 0.5978 -0.8017 58.0501 136.2901)" class="st0 st1 st3">o</text>
		<text transform="matrix(-0.5291 -0.8486 0.8486 -0.5291 40.8103 123.1204)" class="st0 st1 st5">o</text>
		<text transform="matrix(-0.1807 -0.9835 0.9835 -0.1807 29.5706 104.6003)" class="st0 st1 st6">k</text>
		<text transform="matrix(0.374 -0.9274 0.9274 0.374 26.8501 72.6099)" class="st0 st1 st3">n</text>
		<text transform="matrix(0.6952 -0.7189 0.7189 0.6952 35.8399 51.4302)" class="st0 st1 st3">o</text>
		<text transform="matrix(0.9331 -0.3597 0.3597 0.9331 50.0499 35.6301)" class="st0 st1 st3">w</text>
	</g>
</g>
</svg>
